<svg width="198" height="38" fill="none" xmlns="http://www.w3.org/2000/svg"><g clip-path="url(#a)"><path d="M6.91 20.72v-2.26c6.68-.92 13.42-1.36 20.17-1.33 0 .6 0 1.21-.06 1.82a25.52 25.52 0 0 1 6-1.82 16.67 16.67 0 0 0-31.99 3.26l5.88.33ZM28.08 24.23c-1.16 1.28-1.39 1.2-1.39 3.45v9.18A16.64 16.64 0 0 0 34.16 23a17.3 17.3 0 0 0-.32-3.1 33.1 33.1 0 0 0-5.76 4.33ZM7.2 25.72s-3.79-1.44-5.19-1.83a8.54 8.54 0 0 0-1.17-.28 16.65 16.65 0 0 0 8.68 14L7.2 25.72Z" fill="#FDC305"/><path d="M27.13 17.12A89.8 89.8 0 0 0 25.73.65s-.14-1.29-.89-.24c-.59 1.25-1 2.58-1.2 3.94a70.34 70.34 0 0 0-12.77.34C10.08 2 8.7.75 8.02 1c-.67.25-.72 3.31-.72 3.31l-.33 14.1c6.68-.9 13.42-1.34 20.16-1.29Z" fill="#F06351"/><path d="M13.25 14c0-.09 1 .68 1.41.92.41.24.61.42.61.59 0 .17-.27.34-.63.34s-.9-.12-1-.27h1.24A8.34 8.34 0 0 1 13.24 14ZM20.73 14.11l-1.09 1.33c0 .06-.17.35.18.3.41-.06.82-.16 1.22-.29.11 0 .07-.19-.1-.17-.19.02-.7.05-1 .11l.83-1.26s.07-.13-.04-.02ZM17.6 20.2c.45-.2.84-.56 1.08-1 .28-.65 0-.91-.44-1-.6-.11-1.22.01-1.74.34-.39.36-.34.72-.05 1 .35.27.73.49 1.14.66Z" fill="#000"/><path d="M17.2 21.45c-.12.23-.28.43-.47.6-.28.23-.63.36-1 .38a2.15 2.15 0 0 1-1.47-.43 2.3 2.3 0 0 1-.53-.44c-.1-.11-.22-.2-.36-.26 0 0 .75 4.1 2.57 4.75 1.82.65 2.14-.75 2.2-1.13a5.61 5.61 0 0 0-.82-3.23c-.02-.31-.03-.11-.13-.24Z" fill="#F06351"/><path d="M15.55 22.59a3.44 3.44 0 0 1-2.36-1.47.14.14 0 0 1 .03-.15.14.14 0 0 1 .2 0c.5.7 1.26 1.16 2.11 1.3a2.1 2.1 0 0 0 1.63-1l.14-.19.1.21s.37.76 1 .8c.63.04 1.05-.41 1.61-1.28a.14.14 0 0 1 .2 0 .15.15 0 0 1 .05.2c-.64 1-1.27 1.44-1.88 1.4a1.55 1.55 0 0 1-1.12-.76 2.26 2.26 0 0 1-1.7.94Z" fill="#000"/><path d="M27.08 18.92a58.62 58.62 0 0 0-5.07 5.19A31.63 31.63 0 0 1 16.72 29c-.22-.53-1.62-1.51-1.62-1.51s-3.13-2.14-5.18-3.82a34.14 34.14 0 0 1-3.13-3l-2-.11c2.9 4.2 7.12 7.3 12 8.8.86-.14 3.27-1.86 5.07-3.26a58.13 58.13 0 0 0 5.94-5.89c.5-.59.89-1.27 1.14-2-1.1.39-1.86.71-1.86.71Z" fill="#F06351"/></g><g clip-path="url(#b)" fill="#111"><path d="M97.43 26.34a6.86 6.86 0 0 1-1.27-4.3v-6.39c-.1-1.55.3-3.09 1.19-4.38.87-1 2.2-1.47 4.19-1.47 1.97 0 3.23.47 4.02 1.31a5.43 5.43 0 0 1 1.2 3.77v1.54h-3.88v-1.77a3.67 3.67 0 0 0-.24-1.54c-.1-.2-.26-.36-.45-.47-.2-.11-.43-.16-.66-.14-.55 0-.94.15-1.1.54a4.86 4.86 0 0 0-.24 1.69v8.23c-.04.55.07 1.11.32 1.61.16.39.55.54 1.1.54.56 0 .87-.15 1.03-.54.18-.52.26-1.06.24-1.61V21.1h3.87v1.54a5.77 5.77 0 0 1-1.19 3.85c-.78.92-2.13 1.38-4.03 1.38-1.9-.07-3.31-.54-4.1-1.54ZM111.41 10.04h4.5l3.33 17.53h-3.64l-.63-3.69h-2.6l-.64 3.7h-3.72l3.4-17.54Zm3.24 11.53-.95-6.84-.94 6.84h1.9ZM122 12.96h-2.68v-2.92h9.4v2.84h-2.69v14.7H122V12.95ZM135.91 10.04h6.96v1.84h-4.5v5.77H142v1.77h-3.64v6.46h4.5v1.77h-7.03V10.04h.08ZM144.92 10.04h1.74l5.14 11.61V10.04h2.05v17.53h-1.58l-5.21-12v12h-2.14V10.04ZM156.22 10.04h6.96v1.84h-4.5v5.77h3.63v1.77h-3.64v6.46h4.5v1.77h-6.95V10.04ZM165.23 10.04h3.64c1.43-.1 2.85.28 4.03 1.07.87.7 1.26 1.93 1.26 3.54 0 2.23-.7 3.62-2.21 4.08l2.53 8.77h-2.45l-2.37-8.23h-1.98v8.23h-2.53V10.04h.08Zm3.48 7.53c.81.07 1.63-.15 2.3-.61.47-.39.7-1.16.7-2.3a4.84 4.84 0 0 0-.23-1.7c-.18-.4-.49-.72-.87-.92a3.7 3.7 0 0 0-1.74-.31h-1.1v5.77h.94v.07ZM177.32 26.27a7.61 7.61 0 0 1-1.1-4.46v-5.85c-.02-1.12.11-2.23.4-3.3.26-.82.78-1.52 1.5-2 .88-.52 1.9-.76 2.92-.7 1.66 0 2.84.38 3.56 1.23a5.77 5.77 0 0 1 1.1 3.85v.61h-2.37v-.54c0-.64-.05-1.28-.16-1.92-.06-.4-.3-.76-.63-1a2.5 2.5 0 0 0-1.5-.38 2.42 2.42 0 0 0-1.58.46 1.73 1.73 0 0 0-.63 1.23c-.1.69-.16 1.38-.16 2.07v6.54c-.06 1 .1 2 .47 2.93.32.61.95.84 1.9.84.37.05.75-.02 1.1-.18.33-.16.6-.42.8-.74.41-.97.6-2.03.55-3.08v-1.23h-2.3v-1.77h4.59v8.7h-1.58l-.24-2c-.2.66-.64 1.25-1.22 1.65-.59.4-1.3.6-2.02.57a4.05 4.05 0 0 1-3.4-1.53ZM190.84 21.42l-3.87-11.3h2.37l2.76 8.45 2.69-8.46h2.37l-3.87 11.31v6.15h-2.37v-6.15h-.08Z"/></g><defs><clipPath id="a"><path fill="#fff" transform="translate(.84)" d="M0 0h33.32v37.61H0z"/></clipPath><clipPath id="b"><path fill="#fff" transform="translate(96.16 9.8)" d="M0 0h101v18H0z"/></clipPath></defs></svg>